:FULLY-SPECIFIED
:FORCE-ALL-JOINTS-BE-3DOF
:DEGREES
356
root 9.27807 17.0765 14.1715 6.59666 8.54458 -2.05713
lfemur -16.2617 7.74256 -14.5257
ltibia 64.1691 0 0
lfoot -4.52349 11.6025 0
ltoes -3.82794 0 0
rfemur -22.9811 4.01616 26.76
rtibia 32.7326 0 0
rfoot -14.5827 1.55195 0
rtoes -10.7192 0 0
lowerback -6.26936 -2.159 -1.00681
upperback -1.41187 -2.8778 2.85075
thorax 2.25226 -1.4473 3.26945
lowerneck -19.5593 -6.03048 -13.3675
upperneck 20.475 -7.86907 14.0782
head 10.9793 -3.05594 6.17264
lclavicle -2.41328e-15 -9.97974e-15 0
lhumerus -37.7461 -20.9983 99.4595
lradius 25.179 0 0
lwrist 6.57998 0 0
lhand -10.3139 -20.1999 0
lfingers 7.12502 0 0
lthumb 15.6807 9.1756 0
rclavicle -2.41328e-15 -9.97974e-15 0
rhumerus -41.6404 12.7379 -84.8602
rradius 39.3214 0 0
rwrist -23.0714 0 0
rhand -30.8021 -29.2629 0
rfingers 7.12502 0 0
rthumb -4.09202 -59.2033 0
357
root 9.27802 17.0812 14.2914 6.57996 8.30966 -2.10721
lfemur -17.6989 7.62489 -14.8385
ltibia 64.5074 0 0
lfoot -5.40448 11.4815 0
ltoes -3.70546 0 0
rfemur -22.3406 4.23799 26.9106
rtibia 32.4366 0 0
rfoot -14.9012 1.57552 0
rtoes -11.1459 0 0
lowerback -6.22402 -2.00022 -0.921408
upperback -1.33497 -2.67246 2.83214
thorax 2.28777 -1.34523 3.21966
lowerneck -19.7469 -6.06978 -13.3383
upperneck 20.5648 -7.8981 13.9949
head 11.0479 -3.06866 6.13311
lclavicle -6.79181e-16 -5.13896e-15 0
lhumerus -38.4883 -21.3486 99.5758
lradius 25.6382 0 0
lwrist 7.39579 0 0
lhand -11.3535 -20.6297 0
lfingers 7.12502 0 0
lthumb 14.6788 8.81275 0
rclavicle -6.79181e-16 -5.13896e-15 0
rhumerus -41.0662 13.3356 -84.9106
rradius 39.6952 0 0
rwrist -23.1036 0 0
rhand -30.6866 -28.5036 0
rfingers 7.12502 0 0
rthumb -3.9805 -58.446 0
358
root 9.27798 17.0859 14.4112 6.55247 8.06474 -2.15367
lfemur -19.1196 7.47748 -15.1539
ltibia 64.7207 0 0
lfoot -6.21255 11.3188 0
ltoes -3.62718 0 0
rfemur -21.722 4.47571 27.0543
rtibia 32.1879 0 0
rfoot -15.238 1.59873 0
rtoes -11.498 0 0
lowerback -6.16149 -1.84184 -0.847341
upperback -1.24794 -2.46729 2.81816
thorax 2.32592 -1.24345 3.18144
lowerneck -19.9633 -6.11081 -13.3116
upperneck 20.6629 -7.92562 13.9098
head 11.1248 -3.07997 6.09381
lclavicle 2.08025e-15 1.09331e-15 0
lhumerus -39.22 -21.7134 99.7124
lradius 26.104 0 0
lwrist 8.25954 0 0
lhand -12.5462 -21.0905 0
lfingers 7.12502 0 0
lthumb 13.5293 8.42874 0
rclavicle 2.08025e-15 1.09331e-15 0
rhumerus -40.4537 13.9411 -84.9382
rradius 40.0456 0 0
rwrist -23.1133 0 0
rhand -30.5226 -27.6204 0
rfingers 7.12502 0 0
rthumb -3.82213 -57.5656 0
359
root 9.27794 17.0905 14.5311 6.52036 7.81163 -2.19826
lfemur -20.518 7.317 -15.4647
ltibia 64.8217 0 0
lfoot -6.98296 11.1527 0
ltoes -3.60056 0 0
rfemur -21.1206 4.71668 27.1941
rtibia 31.9742 0 0
rfoot -15.5837 1.62292 0
rtoes -11.8041 0 0
lowerback -6.09264 -1.68571 -0.78117
upperback -1.16038 -2.26473 2.80681
thorax 2.36243 -1.14302 3.15031
lowerneck -20.1685 -6.14793 -13.2918
upperneck 20.755 -7.94894 13.8355
head 11.1975 -3.08919 6.06045
lclavicle 5.20291e-15 7.21515e-15 0
lhumerus -39.9346 -22.0308 99.8326
lradius 26.5568 0 0
lwrist 9.10627 0 0
lhand -13.7202 -21.5354 0
lfingers 7.12502 0 0
lthumb 12.3978 8.05959 0
rclavicle 5.20291e-15 7.21515e-15 0
rhumerus -39.8307 14.5329 -84.9498
rradius 40.3816 0 0
rwrist -23.1079 0 0
rhand -30.3437 -26.7465 0
rfingers 7.12502 0 0
rthumb -3.64935 -56.6947 0
360
root 9.27789 17.0952 14.651 6.48981 7.55213 -2.24273
lfemur -21.8884 7.16011 -15.7637
ltibia 64.8231 0 0
lfoot -7.75093 11.0218 0
ltoes -3.63311 0 0
rfemur -20.5315 4.94822 27.3326
rtibia 31.7833 0 0
rfoot -15.929 1.6494 0
rtoes -12.093 0 0
lowerback -6.02832 -1.53368 -0.719459
upperback -1.08188 -2.06718 2.7961
thorax 2.39303 -1.04497 3.12178
lowerneck -20.3221 -6.17548 -13.2836
upperneck 20.8269 -7.96539 13.7844
head 11.2533 -3.09562 6.03871
lclavicle 8.02671e-15 1.17246e-14 0
lhumerus -40.6258 -22.2386 99.8996
lradius 26.9771 0 0
lwrist 9.87104 0 0
lhand -14.7037 -21.9174 0
lfingers 7.12502 0 0
lthumb 11.4499 7.74133 0
rclavicle 8.02671e-15 1.17246e-14 0
rhumerus -39.2252 15.0898 -84.9525
rradius 40.7122 0 0
rwrist -23.0946 0 0
rhand -30.1835 -26.0149 0
rfingers 7.12502 0 0
rthumb -3.49464 -55.9659 0
361
root 9.27785 17.0998 14.7709 6.46698 7.28803 -2.28882
lfemur -23.2249 7.02348 -16.0439
ltibia 64.7377 0 0
lfoot -8.55172 10.9646 0
ltoes -3.7323 0 0
rfemur -19.9499 5.15766 27.4728
rtibia 31.6029 0 0
rfoot -16.2646 1.6795 0
rtoes -12.3935 0 0
lowerback -5.97938 -1.38764 -0.658774
upperback -1.02203 -1.87708 2.78402
thorax 2.41345 -0.950348 3.09138
lowerneck -20.3838 -6.18781 -13.2916
upperneck 20.8645 -7.97231 13.769
head 11.2798 -3.0986 6.03427
lclavicle 9.88954e-15 1.31198e-14 0
lhumerus -41.2872 -22.2749 99.8767
lradius 27.3454 0 0
lwrist 10.4889 0 0
lhand -15.3249 -22.1896 0
lfingers 7.12502 0 0
lthumb 10.8513 7.51001 0
rclavicle 9.88954e-15 1.31198e-14 0
rhumerus -38.665 15.5906 -84.9531
rradius 41.0465 0 0
rwrist -23.0807 0 0
rhand -30.0756 -25.559 0
rfingers 7.12502 0 0
rthumb -3.39045 -55.5118 0
362
root 9.28031 17.0933 14.8898 6.45283 7.01806 -2.33307
lfemur -24.5435 6.90818 -16.3125
ltibia 64.5739 0 0
lfoot -9.41875 10.993 0
ltoes -3.97063 0 0
rfemur -19.3921 5.35454 27.6131
rtibia 31.4622 0 0
rfoot -16.6028 1.70228 0
rtoes -12.71 0 0
lowerback -5.94502 -1.25188 -0.6046
upperback -0.984168 -1.69971 2.76952
thorax 2.42028 -0.861773 3.06071
lowerneck -20.3223 -6.1776 -13.3367
upperneck 20.8483 -7.9631 13.8218
head 11.2652 -3.0944 6.06396
lclavicle 1.09391e-14 1.02429e-14 0
lhumerus -41.9251 -22.1009 99.7409
lradius 27.674 0 0
lwrist 10.9552 0 0
lhand -15.5149 -22.3334 0
lfingers 7.12502 0 0
lthumb 10.6683 7.38011 0
rclavicle 1.09391e-14 1.02429e-14 0
rhumerus -38.1529 16.0428 -84.9547
rradius 41.3871 0 0
rwrist -23.0547 0 0
rhand -30.0062 -25.4576 0
rfingers 7.12502 0 0
rthumb -3.32338 -55.4116 0
363
root 9.28277 17.0869 15.0087 6.4426 6.74053 -2.37337
lfemur -25.8521 6.8011 -16.5767
ltibia 64.3232 0 0
lfoot -10.3305 11.0787 0
ltoes -4.3566 0 0
rfemur -18.8651 5.55092 27.7509
rtibia 31.3767 0 0
rfoot -16.9534 1.7145 0
rtoes -13.0204 0 0
lowerback -5.9164 -1.12576 -0.560782
upperback -0.961291 -1.53419 2.75398
thorax 2.41626 -0.778938 3.03366
lowerneck -20.1635 -6.14791 -13.4196
upperneck 20.7857 -7.93857 13.9395
head 11.2172 -3.08284 6.12658
lclavicle 1.17347e-14 4.06404e-15 0
lhumerus -42.5461 -21.7584 99.517
lradius 27.9809 0 0
lwrist 11.3211 0 0
lhand -15.3973 -22.3826 0
lfingers 7.12502 0 0
lthumb 10.7817 7.32571 0
rclavicle 1.17347e-14 4.06404e-15 0
rhumerus -37.6672 16.4648 -84.9523
rradius 41.7272 0 0
rwrist -23.0086 0 0
rhand -29.9455 -25.62 0
rfingers 7.12502 0 0
rthumb -3.26479 -55.575 0
364
root 9.28523 17.0804 15.1275 6.43393 6.4566 -2.41356
lfemur -27.1326 6.69762 -16.8291
ltibia 63.973 0 0
lfoot -11.2398 11.1996 0
ltoes -4.80173 0 0
rfemur -18.3505 5.73786 27.8875
rtibia 31.314 0 0
rfoot -17.3037 1.72902 0
rtoes -13.3136 0 0
lowerback -5.8923 -1.00377 -0.521425
upperback -0.947473 -1.3737 2.73907
thorax 2.40634 -0.698487 3.00922
lowerneck -19.9531 -6.10865 -13.514
upperneck 20.703 -7.90718 14.0804
head 11.1523 -3.06851 6.20082
lclavicle 1.22315e-14 -3.72723e-15 0
lhumerus -43.1436 -21.3064 99.24
lradius 28.2554 0 0
lwrist 11.605 0 0
lhand -15.0893 -22.3689 0
lfingers 7.12502 0 0
lthumb 11.0788 7.3222 0
rclavicle 1.22315e-14 -3.72723e-15 0
rhumerus -37.1989 16.852 -84.9409
rradius 42.062 0 0
rwrist -22.9546 0 0
rhand -29.9035 -25.9248 0
rfingers 7.12502 0 0
rthumb -3.22426 -55.8805 0
